<?xml version="1.0" standalone="no"?>
<!DOCTYPE svg PUBLIC "-//W3C//DTD SVG 20010904//EN"
 "http://www.w3.org/TR/2001/REC-SVG-20010904/DTD/svg10.dtd">
<svg version="1.0" xmlns="http://www.w3.org/2000/svg"
 width="156.000000pt" height="156.000000pt" viewBox="0 0 156.000000 156.000000"
 preserveAspectRatio="xMidYMid meet">
<metadata>
Created by potrace 1.14, written by Peter Selinger 2001-2017
</metadata>
<g transform="translate(0.000000,156.000000) scale(0.100000,-0.100000)"
fill="#000000" stroke="none">
<path d="M756 1533 c-4 -16 -8 -39 -11 -52 -5 -29 -16 -40 -22 -23 -3 7 -16
25 -30 38 -19 19 -28 23 -34 13 -8 -13 23 -104 60 -177 22 -42 12 -70 -11 -32
-7 11 -21 20 -31 20 -14 0 -16 -6 -12 -32 3 -18 17 -53 30 -78 33 -64 37 -80
20 -80 -7 0 -17 5 -20 10 -3 6 -10 10 -16 10 -16 0 -10 -32 16 -76 18 -30 26
-61 28 -103 2 -34 -1 -61 -6 -61 -17 0 -97 89 -97 109 0 11 -5 32 -12 46 -16
37 -45 32 -39 -7 0 -4 -6 -5 -14 -2 -8 3 -22 29 -31 57 -24 74 -42 107 -59
107 -10 0 -15 -10 -15 -31 0 -30 -1 -31 -22 -17 -16 11 -26 32 -34 74 -15 82
-23 96 -48 92 -16 -2 -21 -10 -21 -35 0 -38 -4 -40 -35 -13 -61 53 -96 31 -52
-34 l31 -45 -32 -3 c-42 -4 -48 -31 -10 -46 15 -6 45 -14 66 -18 35 -6 87 -41
87 -58 0 -3 -14 -5 -32 -4 -75 7 -28 -42 79 -81 35 -13 61 -27 58 -31 -3 -5
-14 -6 -24 -3 -27 7 -38 -17 -15 -34 10 -7 41 -20 68 -28 43 -13 106 -57 106
-74 0 -3 -23 -6 -50 -7 -28 -1 -50 2 -50 6 0 8 -67 40 -85 40 -17 0 -20 -16
-5 -25 16 -10 12 -25 -6 -25 -9 0 -45 14 -80 31 -82 40 -120 31 -74 -19 l21
-22 -34 0 c-22 0 -49 11 -76 30 -54 39 -98 49 -108 25 -4 -12 1 -24 15 -36 28
-22 28 -29 -2 -29 -36 0 -86 -21 -86 -36 0 -7 12 -17 28 -21 37 -10 39 -10 63
-12 l20 -1 -20 -28 c-14 -21 -17 -32 -9 -40 13 -13 42 -3 96 33 30 19 50 25
82 23 37 -2 40 -3 23 -15 -34 -23 -43 -34 -38 -44 10 -15 32 -11 112 21 88 36
105 37 74 9 -21 -20 -22 -23 -7 -31 12 -7 32 -1 73 21 54 29 133 43 133 23 0
-16 -47 -52 -68 -52 -33 0 -103 -31 -99 -44 2 -6 19 -13 38 -16 31 -5 32 -7
14 -16 -11 -6 -47 -18 -80 -28 -74 -22 -100 -39 -91 -62 5 -13 14 -15 41 -10
41 8 43 1 10 -37 -18 -20 -41 -31 -90 -41 -67 -14 -95 -29 -95 -52 0 -17 34
-27 62 -18 22 7 22 6 -4 -28 -33 -43 -46 -88 -26 -88 7 0 30 11 50 25 41 28
56 31 55 13 -1 -34 4 -48 19 -48 17 0 44 57 44 93 0 14 9 36 21 51 22 28 52
36 43 11 -4 -10 0 -15 13 -15 19 0 51 51 67 107 4 11 13 27 21 33 12 10 15 9
15 -5 0 -35 35 -9 53 40 10 28 33 65 51 84 l34 33 4 -37 c3 -28 -2 -47 -24
-81 -15 -25 -28 -51 -28 -59 0 -21 16 -27 30 -10 15 18 30 20 30 4 0 -7 -16
-45 -35 -85 -19 -40 -35 -77 -35 -82 0 -23 31 -20 55 6 l25 27 0 -43 c0 -31
-8 -55 -29 -85 -42 -62 -52 -84 -45 -101 9 -23 40 -20 58 6 19 27 20 25 32
-37 6 -34 14 -51 26 -53 15 -3 26 23 34 83 1 11 3 22 3 24 1 2 9 -3 19 -11 9
-8 25 -18 35 -21 36 -13 15 64 -30 111 -14 15 -16 23 -13 67 3 41 12 53 21 27
11 -29 39 -29 38 1 0 12 -13 54 -29 92 -28 70 -30 89 -8 67 16 -16 38 -15 38
1 0 8 -11 36 -25 63 -37 73 -31 140 7 81 8 -12 18 -38 22 -57 3 -20 13 -45 21
-57 18 -26 45 -20 38 8 -3 10 -1 19 4 19 6 0 22 -32 37 -70 28 -70 48 -100 68
-100 6 0 8 13 6 30 -3 16 -2 30 1 30 20 -1 55 -47 74 -97 29 -78 50 -109 66
-99 9 6 11 20 6 42 -7 39 -3 41 33 15 15 -10 37 -22 50 -25 31 -10 30 20 -3
68 -13 20 -21 37 -17 37 4 1 25 2 46 3 22 0 41 6 43 12 3 10 -78 54 -127 69
-42 12 -90 37 -90 46 0 5 12 9 26 9 20 0 25 4 22 22 -2 17 -18 26 -75 46 -71
23 -91 43 -57 56 25 9 2 30 -48 46 -43 12 -112 63 -101 74 14 14 77 4 121 -19
53 -28 92 -33 92 -10 0 8 -4 15 -10 15 -5 0 -10 5 -10 11 0 12 28 5 89 -23 40
-19 57 -23 89 -19 21 2 13 28 -10 35 l-23 7 23 9 c28 12 58 5 120 -26 81 -41
143 -23 70 21 l-32 18 55 18 c30 10 55 19 57 19 1 0 2 6 2 14 0 13 -21 22 -80
33 -31 5 -39 14 -21 21 8 3 26 17 39 31 l24 26 -25 3 c-15 2 -63 -13 -108 -32
-99 -43 -117 -46 -95 -14 9 12 16 26 16 30 0 17 -47 7 -108 -22 -68 -32 -89
-32 -72 1 9 16 7 19 -11 19 -12 0 -36 -9 -54 -20 -30 -19 -135 -34 -135 -20 0
15 79 81 110 91 19 7 43 18 53 24 15 11 16 15 4 26 -20 21 -10 36 31 50 41 13
102 55 102 70 0 5 -10 9 -22 9 -36 0 -3 24 67 50 68 25 85 36 85 58 0 11 -8
13 -39 8 l-40 -6 24 42 c25 43 32 78 17 78 -4 0 -29 -13 -55 -30 -26 -16 -49
-30 -52 -30 -2 0 0 12 4 28 9 29 7 60 -4 70 -11 11 -37 -33 -75 -126 -39 -95
-57 -113 -56 -55 1 27 -4 38 -15 41 -17 3 -35 -33 -64 -125 -18 -56 -35 -70
-35 -28 0 37 -28 31 -46 -10 -7 -19 -14 -45 -14 -58 0 -21 -48 -87 -63 -87
-18 0 -6 102 17 144 24 45 26 100 3 77 -18 -18 -30 -12 -24 12 3 12 15 48 27
81 26 73 20 99 -15 66 l-25 -23 0 22 c0 12 12 48 26 79 29 62 36 112 17 119
-6 2 -19 -10 -28 -26 -19 -38 -30 -39 -33 -3 -3 39 -22 82 -37 82 -8 0 -16
-12 -19 -27z"/>
</g>
</svg>
